<mxfile host="Electron" agent="Mozilla/5.0 (Windows NT 10.0; Win64; x64) AppleWebKit/537.36 (KHTML, like Gecko) draw.io/24.7.8 Chrome/128.0.6613.36 Electron/32.0.1 Safari/537.36" version="24.7.8">
  <diagram name="Seite-1" id="i2JJjAlPohZ8p97VswGH">
    <mxGraphModel dx="1098" dy="988" grid="1" gridSize="10" guides="1" tooltips="1" connect="1" arrows="1" fold="1" page="1" pageScale="1" pageWidth="827" pageHeight="1169" math="0" shadow="0">
      <root>
        <mxCell id="0" />
        <mxCell id="1" parent="0" />
        <mxCell id="C9_FqRsTxjfO-Xp2X4wc-5" value="" style="rounded=0;whiteSpace=wrap;html=1;" parent="1" vertex="1">
          <mxGeometry x="20" y="50" width="550" height="360" as="geometry" />
        </mxCell>
        <mxCell id="C9_FqRsTxjfO-Xp2X4wc-2" value="" style="rounded=0;whiteSpace=wrap;html=1;strokeColor=none;fillColor=#2B92E0;" parent="1" vertex="1">
          <mxGeometry x="30" y="60" width="120" height="60" as="geometry" />
        </mxCell>
        <mxCell id="C9_FqRsTxjfO-Xp2X4wc-3" value="" style="rounded=0;whiteSpace=wrap;html=1;strokeColor=none;fillColor=#31DEB9;" parent="1" vertex="1">
          <mxGeometry x="30" y="130" width="120" height="60" as="geometry" />
        </mxCell>
        <mxCell id="C9_FqRsTxjfO-Xp2X4wc-4" value="" style="rounded=0;whiteSpace=wrap;html=1;strokeColor=none;fillColor=#E17A2A;" parent="1" vertex="1">
          <mxGeometry x="30" y="200" width="120" height="60" as="geometry" />
        </mxCell>
        <mxCell id="C9_FqRsTxjfO-Xp2X4wc-6" value="#2B92E0" style="text;html=1;align=center;verticalAlign=middle;whiteSpace=wrap;rounded=0;" parent="1" vertex="1">
          <mxGeometry x="160" y="75" width="60" height="30" as="geometry" />
        </mxCell>
        <mxCell id="C9_FqRsTxjfO-Xp2X4wc-7" value="" style="rounded=0;whiteSpace=wrap;html=1;strokeColor=none;fillColor=#613819;" parent="1" vertex="1">
          <mxGeometry x="30" y="270" width="120" height="60" as="geometry" />
        </mxCell>
        <mxCell id="C9_FqRsTxjfO-Xp2X4wc-8" value="" style="rounded=0;whiteSpace=wrap;html=1;strokeColor=none;fillColor=#435461;" parent="1" vertex="1">
          <mxGeometry x="30" y="340" width="120" height="60" as="geometry" />
        </mxCell>
        <mxCell id="C9_FqRsTxjfO-Xp2X4wc-10" value="" style="rounded=0;whiteSpace=wrap;html=1;fillColor=#000000;" parent="1" vertex="1">
          <mxGeometry x="380" y="50" width="190" height="360" as="geometry" />
        </mxCell>
        <mxCell id="C9_FqRsTxjfO-Xp2X4wc-11" value="#E17A2A" style="text;html=1;align=center;verticalAlign=middle;whiteSpace=wrap;rounded=0;" parent="1" vertex="1">
          <mxGeometry x="160" y="215" width="60" height="30" as="geometry" />
        </mxCell>
        <mxCell id="C9_FqRsTxjfO-Xp2X4wc-12" value="#31DEB9" style="text;html=1;align=center;verticalAlign=middle;whiteSpace=wrap;rounded=0;" parent="1" vertex="1">
          <mxGeometry x="160" y="145" width="60" height="30" as="geometry" />
        </mxCell>
        <mxCell id="C9_FqRsTxjfO-Xp2X4wc-13" value="" style="rounded=0;whiteSpace=wrap;html=1;strokeColor=none;fillColor=#2B92E0;" parent="1" vertex="1">
          <mxGeometry x="415" y="60" width="120" height="60" as="geometry" />
        </mxCell>
        <mxCell id="C9_FqRsTxjfO-Xp2X4wc-14" value="" style="rounded=0;whiteSpace=wrap;html=1;strokeColor=none;fillColor=#31DEB9;" parent="1" vertex="1">
          <mxGeometry x="415" y="130" width="120" height="60" as="geometry" />
        </mxCell>
        <mxCell id="C9_FqRsTxjfO-Xp2X4wc-15" value="" style="rounded=0;whiteSpace=wrap;html=1;strokeColor=none;fillColor=#E17A2A;" parent="1" vertex="1">
          <mxGeometry x="415" y="200" width="120" height="60" as="geometry" />
        </mxCell>
        <mxCell id="C9_FqRsTxjfO-Xp2X4wc-16" value="" style="rounded=0;whiteSpace=wrap;html=1;strokeColor=none;fillColor=#613819;" parent="1" vertex="1">
          <mxGeometry x="415" y="270" width="120" height="60" as="geometry" />
        </mxCell>
        <mxCell id="C9_FqRsTxjfO-Xp2X4wc-17" value="" style="rounded=0;whiteSpace=wrap;html=1;strokeColor=none;fillColor=#435461;" parent="1" vertex="1">
          <mxGeometry x="415" y="340" width="120" height="60" as="geometry" />
        </mxCell>
        <mxCell id="C9_FqRsTxjfO-Xp2X4wc-19" value="Accent 1" style="text;html=1;align=center;verticalAlign=middle;whiteSpace=wrap;rounded=0;" parent="1" vertex="1">
          <mxGeometry x="265" y="75" width="60" height="30" as="geometry" />
        </mxCell>
        <mxCell id="C9_FqRsTxjfO-Xp2X4wc-20" value="Accent 2" style="text;html=1;align=center;verticalAlign=middle;whiteSpace=wrap;rounded=0;" parent="1" vertex="1">
          <mxGeometry x="265" y="145" width="60" height="30" as="geometry" />
        </mxCell>
        <mxCell id="C9_FqRsTxjfO-Xp2X4wc-21" value="Accent 3" style="text;html=1;align=center;verticalAlign=middle;whiteSpace=wrap;rounded=0;" parent="1" vertex="1">
          <mxGeometry x="265" y="215" width="60" height="30" as="geometry" />
        </mxCell>
        <mxCell id="C9_FqRsTxjfO-Xp2X4wc-22" value="#613819" style="text;html=1;align=center;verticalAlign=middle;whiteSpace=wrap;rounded=0;" parent="1" vertex="1">
          <mxGeometry x="160" y="285" width="60" height="30" as="geometry" />
        </mxCell>
        <mxCell id="C9_FqRsTxjfO-Xp2X4wc-23" value="Base 1" style="text;html=1;align=center;verticalAlign=middle;whiteSpace=wrap;rounded=0;" parent="1" vertex="1">
          <mxGeometry x="265" y="285" width="60" height="30" as="geometry" />
        </mxCell>
        <mxCell id="C9_FqRsTxjfO-Xp2X4wc-24" value="#435461" style="text;html=1;align=center;verticalAlign=middle;whiteSpace=wrap;rounded=0;" parent="1" vertex="1">
          <mxGeometry x="160" y="355" width="60" height="30" as="geometry" />
        </mxCell>
        <mxCell id="C9_FqRsTxjfO-Xp2X4wc-25" value="Base 2" style="text;html=1;align=center;verticalAlign=middle;whiteSpace=wrap;rounded=0;" parent="1" vertex="1">
          <mxGeometry x="265" y="355" width="60" height="30" as="geometry" />
        </mxCell>
        <mxCell id="C9_FqRsTxjfO-Xp2X4wc-26" value="" style="rounded=0;whiteSpace=wrap;html=1;" parent="1" vertex="1">
          <mxGeometry x="20" y="20" width="550" height="30" as="geometry" />
        </mxCell>
        <mxCell id="C9_FqRsTxjfO-Xp2X4wc-27" value="&lt;b&gt;&lt;font style=&quot;font-size: 14px;&quot;&gt;Main&lt;/font&gt;&lt;/b&gt;" style="text;html=1;align=left;verticalAlign=middle;whiteSpace=wrap;rounded=0;" parent="1" vertex="1">
          <mxGeometry x="30" y="20" width="130" height="30" as="geometry" />
        </mxCell>
      </root>
    </mxGraphModel>
  </diagram>
</mxfile>
